HIERARCHY
ROOT root
{
	OFFSET	0	13.1	24.9
	CHANNELS 6  Xposition Yposition Zposition Xrotation Yrotation Zrotation
	JOINT spine_1
	{
		OFFSET	0	9.99999	0
		CHANNELS 3  Xrotation Yrotation Zrotation
		JOINT spine_2
		{
			OFFSET	0	112	-10
			CHANNELS 3  Xrotation Yrotation Zrotation
			JOINT spine_3
			{
				OFFSET	0	206.5	19.3
				CHANNELS 3  Xrotation Yrotation Zrotation
				JOINT spine_4
				{
					OFFSET	0	110.4	14.6
					CHANNELS 3  Xrotation Yrotation Zrotation
					JOINT neck_1
					{
						OFFSET	0	71.8	-50.3
						CHANNELS 3  Xrotation Yrotation Zrotation
						JOINT neck_2
						{
							OFFSET	0	86.2	-25.8
							CHANNELS 3  Xrotation Yrotation Zrotation
							JOINT head_ee
							{
								OFFSET	0	179.8	-8.7
								CHANNELS 3  Xrotation Yrotation Zrotation
								End Site
								{
									OFFSET	1	0	0
								}
							}
						}
					}
					JOINT left_clavicle
					{
						OFFSET	-43.2	22.4	-70.8
						CHANNELS 3  Xrotation Yrotation Zrotation
						JOINT left_shoulder
						{
							OFFSET	-93.9	-5.79999	48.7
							CHANNELS 3  Xrotation Yrotation Zrotation
							JOINT left_elbow
							{
								OFFSET	-291.4	-30.8	15.2
								CHANNELS 3  Xrotation Yrotation Zrotation
								JOINT left_lowarm_twist
								{
									OFFSET	-110.7	-3.89999	13.6
									CHANNELS 3  Xrotation Yrotation Zrotation
									JOINT left_hand
									{
										OFFSET	-110.7	-3.89999	13.6
										CHANNELS 3  Xrotation Yrotation Zrotation
										JOINT left_ee
										{
											OFFSET	-80.8	-5.10001	12.1
											CHANNELS 3  Xrotation Yrotation Zrotation
											End Site
											{
												OFFSET	1	0	0
											}
										}
									}
								}
							}
						}
					}
					JOINT right_clavicle
					{
						OFFSET	43.2	22.4	-70.8
						CHANNELS 3  Xrotation Yrotation Zrotation
						JOINT right_shoulder
						{
							OFFSET	93.9	-5.79999	48.7
							CHANNELS 3  Xrotation Yrotation Zrotation
							JOINT right_elbow
							{
								OFFSET	291.4	-30.8	15.2
								CHANNELS 3  Xrotation Yrotation Zrotation
								JOINT right_lowarm_twist
								{
									OFFSET	110.7	-3.89999	13.6
									CHANNELS 3  Xrotation Yrotation Zrotation
									JOINT right_hand
									{
										OFFSET	110.7	-3.89999	13.6
										CHANNELS 3  Xrotation Yrotation Zrotation
										JOINT right_ee
										{
											OFFSET	80.8	-5.10001	12.1
											CHANNELS 3  Xrotation Yrotation Zrotation
											End Site
											{
												OFFSET	1	0	0
											}
										}
									}
								}
							}
						}
					}
				}
			}
		}
	}
	JOINT left_hip
	{
		OFFSET	-82.8	-127.5	0.300001
		CHANNELS 3  Xrotation Yrotation Zrotation
		JOINT left_knee
		{
			OFFSET	-28.2	-396.7	2.2
			CHANNELS 3  Xrotation Yrotation Zrotation
			JOINT left_ankle
			{
				OFFSET	-11.7	-411.3	35.4
				CHANNELS 3  Xrotation Yrotation Zrotation
				JOINT left_toes
				{
					OFFSET	0	-60	-88.6
					CHANNELS 3  Xrotation Yrotation Zrotation
					JOINT left_foot_ee
					{
						OFFSET	-22.5	-16.5	-42.2
						CHANNELS 3  Xrotation Yrotation Zrotation
						End Site
						{
							OFFSET	1	0	0
						}
					}
				}
			}
		}
	}
	JOINT right_hip
	{
		OFFSET	82.8	-127.5	0.300001
		CHANNELS 3  Xrotation Yrotation Zrotation
		JOINT right_knee
		{
			OFFSET	28.2	-396.7	2.2
			CHANNELS 3  Xrotation Yrotation Zrotation
			JOINT right_ankle
			{
				OFFSET	11.7	-411.3	35.4
				CHANNELS 3  Xrotation Yrotation Zrotation
				JOINT right_toes
				{
					OFFSET	0	-60	-88.6
					CHANNELS 3  Xrotation Yrotation Zrotation
					JOINT right_foot_ee
					{
						OFFSET	22.5	-16.5	-42.2
						CHANNELS 3  Xrotation Yrotation Zrotation
						End Site
						{
							OFFSET	1	0	0
						}
					}
				}
			}
		}
	}
}
MOTION
Frames: 6
Frame Time: 0.02
2930.38806266 690.436 -1849.11710775 -9.8328177445 28.6157833347 6.85514591279 3.5633 -0.0717722 0.380451 3.56338 -0.0958356 0.375113 3.56271 -0.150666 0.356642 3.56254 -0.0924509 0.375961 -9.26335 16.1153 3.34523 -9.44869 28.0181 7.20342 -0.0 0.0 -0.0 1.26564 9.68453 3.3371 -11.1423 -28.8327 55.1412 0.841833 -22.6369 0.168499 39.3256 -0.314649 -4.91646 0.240809 4.81818 3.6004 -0.0 0.0 -0.0 7.7123 6.59681 -14.9888 -26.0678 16.427 -63.9475 0.916166 24.4102 -0.198172 14.8756 -0.282272 1.87394 -0.793791 -23.3479 -4.72816 0.0 0.0 0.0 24.0166 -9.18425 -3.30761 -35.4038 -0.200543 5.34421 16.9979 26.4288 -2.48775 -5.33498 0.0 0.0 -0.0 0.0 -0.0 41.4122 36.3914 -19.2289 -69.416 3.29778 -9.47565 35.0507 -20.2373 4.55064 11.9584 -0.0 -0.0 0.0 0.0 0.0 
2912.22529741 691.909 -1854.36258922 -9.74177331282 28.3347125099 7.210774667 3.71397 0.00332553 0.31399 3.71402 -0.0166611 0.313565 3.7139 -0.0623905 0.307747 3.71377 -0.0130048 0.313738 -9.27971 16.4299 3.60947 -9.469 28.4361 7.54418 -0.0 0.0 -0.0 1.18231 10.742 3.28777 -9.69213 -27.5658 53.6115 1.00136 -26.3829 0.234716 40.1218 -0.355615 -5.00969 0.330288 2.5387 3.25684 -0.0 0.0 -0.0 7.56794 6.28651 -14.6929 -26.1257 16.4523 -64.2661 0.839271 22.5749 -0.167515 14.6236 -0.281567 1.84176 -0.823763 -25.0042 -5.2393 0.0 0.0 0.0 21.1259 -6.22408 -4.22447 -31.6309 -0.0218481 4.79303 17.5263 23.576 -2.51977 -5.56847 0.0 0.0 -0.0 0.0 -0.0 45.3323 36.2547 -20.8067 -69.0555 3.25293 -9.44263 32.8855 -19.9153 4.31778 11.3291 -0.0 -0.0 0.0 0.0 0.0 
2893.94022918 691.322 -1852.71864049 -10.6812239006 29.3762493967 8.42162755133 3.57334 0.04184 0.0425885 3.57334 0.0390452 0.0451646 3.57337 0.0318883 0.0504728 3.57336 0.0394594 0.0448032 -9.92002 16.2475 4.546 -10.1278 27.5765 8.55506 -0.0 0.0 -0.0 0.933539 10.0521 2.79766 -8.59618 -28.3509 52.1596 1.07588 -28.055 0.268801 41.5408 -0.431822 -5.17441 0.47275 -0.43271 2.97936 -0.0 0.0 -0.0 7.49167 5.81145 -14.5428 -26.1334 16.3339 -64.3337 0.79282 21.4418 -0.150107 14.6871 -0.281758 1.84987 -0.832679 -26.0963 -5.63666 0.0 0.0 0.0 20.5297 -7.30427 -3.70366 -31.0551 0.00221042 4.70794 17.0836 25.9548 -2.49247 -5.88433 0.0 0.0 -0.0 0.0 -0.0 47.1662 35.772 -21.5134 -68.9399 3.23861 -9.43199 32.6576 -20.4856 4.30432 11.2131 -0.0 -0.0 0.0 0.0 0.0 
2878.16817279 698.603 -1847.66511001 -11.9219387141 29.9539662972 9.66617553678 3.56061 0.0271758 -0.0933556 3.56062 0.0330612 -0.0914371 3.56056 0.046321 -0.0854877 3.56055 0.0322385 -0.0917304 -9.85988 14.7201 3.92708 -10.0286 25.0889 7.53574 -0.0 0.0 -0.0 1.20379 12.6312 3.49014 -6.88178 -28.0232 50.8299 1.23907 -31.5403 0.349938 41.5632 -0.433057 -5.17699 0.763413 -10.8474 0.541121 -0.0 0.0 -0.0 7.81992 4.9287 -15.2363 -26.1509 16.8282 -63.1849 0.606482 16.7222 -0.0891373 15.5775 -0.283487 1.96359 -0.539231 -23.5741 -6.28576 0.0 0.0 0.0 19.6196 -1.8926 -4.51264 -25.6726 0.185346 3.9025 23.5598 19.7361 -3.2441 -7.28499 0.0 0.0 -0.0 0.0 -0.0 46.8119 31.8259 -19.0831 -57.4998 1.93614 -8.24426 22.8907 -25.954 3.26124 8.96209 -0.0 -0.0 0.0 0.0 0.0 
2836.09234284 694.667 -1860.96112951 -13.6919214883 31.570674174 10.8419984715 3.79195 -0.195747 -0.439532 3.79204 -0.167382 -0.451097 3.79331 -0.100191 -0.470602 3.79304 -0.173256 -0.448874 -9.11042 13.8602 4.65709 -9.18226 22.8364 7.85955 -0.0 0.0 -0.0 1.41403 13.6707 3.92365 -5.15539 -27.8504 49.2051 1.46475 -35.9621 0.475414 41.7143 -0.441422 -5.19442 0.886324 -19.5892 -2.43339 -0.0 0.0 -0.0 7.67127 3.39911 -14.9403 -27.1119 16.119 -62.2527 0.393325 11.0257 -0.0379619 16.7794 -0.283017 2.11709 -0.308507 -21.229 -6.70785 0.0 0.0 0.0 15.0801 1.57946 -2.90376 -20.0535 0.295 3.04755 28.1667 12.5709 -3.71079 -9.09995 0.0 0.0 -0.0 0.0 -0.0 50.5029 29.2475 -16.077 -43.6162 0.712705 -6.49694 10.1454 -28.7605 1.54252 4.40646 -0.0 -0.0 0.0 0.0 0.0 
2808.16863907 692.069 -1867.85469863 -13.2821635608 32.9835648411 10.2631458695 3.75103 -0.543497 -0.448054 3.751 -0.513885 -0.48173 3.75535 -0.438239 -0.551441 3.7553 -0.519828 -0.47531 -8.57614 13.3263 4.02688 -8.62714 22.1722 7.01708 -0.0 0.0 -0.0 2.02326 14.0414 4.9453 -4.19952 -27.8815 48.5727 1.49801 -36.5757 0.495094 41.2133 -0.413872 -5.13656 0.883 -21.1821 -3.15469 -0.0 0.0 -0.0 7.36681 2.33985 -14.3238 -27.6757 16.445 -61.2275 0.352099 9.89417 -0.0304772 17.2994 -0.281816 2.1835 -0.199344 -20.084 -6.91041 0.0 0.0 0.0 11.5707 3.55244 -1.00515 -17.7597 0.315577 2.69623 30.6282 10.4031 -3.96613 -9.57871 0.0 0.0 -0.0 0.0 -0.0 52.1623 28.3708 -13.8176 -39.2451 0.419441 -5.89233 6.03575 -29.4676 0.932936 3.12764 -0.0 -0.0 0.0 0.0 0.0 
